<?xml version="1.0" encoding="utf-8"?>
<!-- Generator: Adobe Illustrator 27.5.0, SVG Export Plug-In . SVG Version: 6.00 Build 0)  -->
<svg version="1.1" xmlns="http://www.w3.org/2000/svg" xmlns:xlink="http://www.w3.org/1999/xlink" x="0px" y="0px"
	 viewBox="0 0 3710 3710" style="enable-background:new 0 0 3710 3710;" xml:space="preserve">
<g id="Background">
	<g>
		<g>
			<rect style="fill:#FFFFFF;" width="3710" height="3710"/>
		</g>
	</g>
</g>
<g id="Illustration">
	<g>
		<linearGradient id="SVGID_1_" gradientUnits="userSpaceOnUse" x1="3597.9631" y1="4037.4688" x2="1161.8478" y2="1011.9662">
			<stop  offset="0" style="stop-color:#DAE3FE"/>
			<stop  offset="1" style="stop-color:#E9EFFD"/>
		</linearGradient>
		<path style="fill:url(#SVGID_1_);" d="M2927.772,2844.32c-55.957,58.909-108.902,96.898-150.734,126.913
			c-491.719,352.814-1073.552,249.97-1197.209,224.855c-182.601-37.087-535.565-108.776-790.752-408.871
			c-386.076-454.018-325.959-1169.31-26.492-1641.484c54.777-86.369,344.126-565.735,932.227-642.611
			c355.912-46.524,770.791,47.31,1071.235,299.022C3396.708,1330.51,3351.811,2397.906,2927.772,2844.32z"/>
		<g>
			<path style="fill:#BDD0FB;" d="M486.589,818.455c-2.754-11.724,13.738-19.517,23.837-11.327
				c102.549,83.157,348.944,332.174,287.538,767.351c-77.043,545.994,54.672,745.222,218.624,866.748
				c0,0-225.161-57.149-366.823-259.309C301.955,1685.568,535.558,1026.909,486.589,818.455z"/>
			<path style="fill:#FFFFFF;" d="M564.63,988.991c12.829,60.783,24.263,121.751,33.099,182.994
				c9.207,61.191,16.262,122.597,21.09,184.103c4.554,61.517,7.771,123.099,7.954,184.707c0.503,61.604-2.058,123.158-4.88,184.952
				c-2.421,61.771-5.266,123.988-0.744,186.646c4.447,62.53,17.609,125.606,43.728,184.735
				c6.529,14.737,13.395,29.428,21.195,43.623c7.498,14.326,15.733,28.37,24.256,42.28c17.21,27.754,36.582,54.569,58.171,80.02
				c43.333,50.816,95.596,95.894,153.169,134.045c6.06,4.015,14.741,3.028,19.392-2.204c4.566-5.138,3.546-12.46-2.23-16.524
				l-0.041-0.029c-13.699-9.621-27.254-19.366-40.259-29.599c-6.599-5.028-12.925-10.298-19.363-15.463
				c-6.204-5.369-12.652-10.532-18.657-16.061c-24.447-21.759-47.096-44.975-67.643-69.521
				c-41.331-48.865-74.417-103.316-99.485-159.765c-12.168-28.356-21.896-57.436-28.997-87.062
				c-7.077-29.634-11.527-59.782-13.989-90.174c-4.93-60.817-2.703-122.417-0.796-184.2c1.814-61.799,3.145-123.911,1.514-185.973
				c-0.718-31.029-2.082-62.044-4.089-93.021c-0.9-15.493-2.147-30.969-3.362-46.443c-1.387-15.465-2.872-30.921-4.503-46.363
				c-6.657-61.762-15.493-123.319-26.569-184.549c-11.416-61.183-24.708-122.085-40.695-182.441
				c-0.458-1.726-2.447-2.804-4.444-2.409C565.513,985.677,564.28,987.317,564.63,988.991z"/>
		</g>
		<g>
			<g>
				<path style="fill:#91B3FA;" d="M856.152,1653.246c-9.063,15.936-31.455,17.437-42.753,3
					c-62.341-79.659-218.234-320.823-140.553-661.268c65.598-287.491,73.848-449.614,72.493-523.472
					c-0.286-15.618,19.531-22.524,29.037-10.129C879.252,598.131,1184.542,1075.81,856.152,1653.246z"/>
				<path style="fill:#FFFFFF;" d="M831.661,1649.199c-0.416,0.184-0.854,0.329-1.314,0.433c-3.854,0.876-7.689-1.539-8.565-5.393
					c-0.993-4.37-98.424-441.597-25.271-845.454c0.705-3.886,4.428-6.469,8.32-5.768c3.89,0.706,6.471,4.429,5.768,8.32
					c-72.621,400.917,24.157,835.39,25.142,839.731C836.513,1644.463,834.732,1647.843,831.661,1649.199z"/>
			</g>
		</g>
		<g>
			<g>
				<path style="fill:#7D97F4;" d="M679.972,955.779c-0.284-25.568,22.099-45.474,47.455-42.17
					c168.161,21.914,746.382,89.386,1223.954,50.225c21.779-1.786,40.773,14.624,42.046,36.439l104.567,1791.522
					c1.434,24.565-17.22,45.674-41.775,47.256c-200.876,12.937-1028.163,63.211-1323.49,33.832
					c-17.974-1.789-31.689-16.842-31.89-34.904L679.972,955.779z"/>
				<path style="fill:#91B3FA;" d="M699.999,1000.583c-0.273-24.605,21.267-43.762,45.668-40.582
					c161.829,21.089,718.276,86.021,1177.866,48.334c20.959-1.719,39.238,14.073,40.463,35.067l100.629,1724.061
					c1.38,23.64-16.572,43.955-40.202,45.477c-193.312,12.45-989.447,60.831-1273.654,32.557
					c-17.297-1.721-30.496-16.208-30.688-33.59L699.999,1000.583z"/>
				<path style="opacity:0.78;fill:#FFFFFF;" d="M850.394,1132.764l19.099,369.635c0.635,12.294,10.62,22.019,22.927,22.302
					c68.483,1.575,281.875,5.669,402.317-1.239c13.624-0.781,24.348-11.862,24.729-25.503
					c1.936-69.349,5.914-271.185-10.326-355.467c-2.623-13.614-14.388-23.539-28.247-23.951l-404.797-12.048
					C861.499,1106.059,849.64,1118.18,850.394,1132.764z"/>
				
					<linearGradient id="SVGID_00000093135934040158994920000000280600995235805884_" gradientUnits="userSpaceOnUse" x1="1099.7307" y1="1079.2107" x2="1965.59" y2="2063.3555" gradientTransform="matrix(0.981 0.1939 -0.1939 0.981 106.7529 -193.4376)">
					<stop  offset="0" style="stop-color:#CE1567"/>
					<stop  offset="1" style="stop-color:#7A1DBC"/>
				</linearGradient>
				
					<circle style="fill:url(#SVGID_00000093135934040158994920000000280600995235805884_);" cx="1083.968" cy="1263.737" r="79.48"/>
				
					<linearGradient id="SVGID_00000038381676330510516090000002952498775961652894_" gradientUnits="userSpaceOnUse" x1="1023.4709" y1="1146.2842" x2="1889.3569" y2="2130.4595" gradientTransform="matrix(0.981 0.1939 -0.1939 0.981 106.7529 -193.4376)">
					<stop  offset="0" style="stop-color:#CE1567"/>
					<stop  offset="1" style="stop-color:#7A1DBC"/>
				</linearGradient>
				<path style="fill:url(#SVGID_00000038381676330510516090000002952498775961652894_);" d="M964.458,1497.713l253.21-1.318
					c15.524-0.081,24.736-17.271,16.308-30.308c-21.682-33.542-66.94-82.75-144.861-80.113
					c-75.1,2.541-119.388,47.432-141.602,79.578C938.084,1479.198,947.871,1497.8,964.458,1497.713z"/>
				<g style="opacity:0.6;">
					<path style="fill:#FFFFFF;" d="M1861.641,1159.687c8.743-0.045,15.705-5.663,15.47-12.484
						c-0.235-6.821-7.58-12.491-16.323-12.602l-440.895-5.562c-8.743-0.11-13.484,6.535-10.537,14.766l1.158,3.235
						c2.947,8.232,12.512,14.929,21.256,14.884L1861.641,1159.687z"/>
				</g>
				<g style="opacity:0.6;">
					<path style="fill:#FFFFFF;" d="M1420.252,1197.964c-8.743-0.11-13.484,6.535-10.537,14.766l1.158,3.235
						c2.947,8.232,12.512,14.929,21.256,14.884l429.87-2.237c8.743-0.046,15.705-5.663,15.47-12.484
						c-0.235-6.821-7.58-12.491-16.323-12.602L1420.252,1197.964z"/>
				</g>
				<g style="opacity:0.6;">
					<path style="fill:#FFFFFF;" d="M1420.616,1267.891c-8.743-0.11-13.484,6.535-10.537,14.766l1.158,3.235
						c2.947,8.232,12.512,14.929,21.256,14.884l429.87-2.237c8.743-0.046,15.705-5.663,15.47-12.484
						c-0.235-6.821-7.58-12.491-16.323-12.602L1420.616,1267.891z"/>
				</g>
				<g style="opacity:0.6;">
					<path style="fill:#FFFFFF;" d="M1907.226,1635.539c8.743-0.045,15.499-5.662,15.013-12.481
						c-0.486-6.819-8.037-12.418-16.781-12.441l-1036.816-2.777c-8.743-0.023-11.412,5.531-5.93,12.342l6.697,8.322
						c5.482,6.812,17.121,12.347,25.864,12.302L1907.226,1635.539z"/>
				</g>
				<g style="opacity:0.6;">
					<path style="fill:#FFFFFF;" d="M869.002,1676.764c-8.743-0.023-11.412,5.531-5.93,12.342l6.697,8.322
						c5.482,6.812,17.121,12.347,25.864,12.302l1011.952-5.266c8.743-0.046,15.499-5.662,15.013-12.482
						c-0.486-6.819-8.037-12.418-16.781-12.441L869.002,1676.764z"/>
				</g>
				<path style="opacity:0.6;fill:#FFFFFF;" d="M863.429,1791.865c24.989-2.046,71.799-3.178,97.567-3.672
					c10.919-0.209,20.534,7.138,23.15,17.74c5.081,20.593,12.128,56.359,11.462,94.296c-0.2,11.361-9.458,20.478-20.821,20.415
					l-95.102-0.529c-11.695-0.065-21.451-8.955-22.6-20.593l-8.826-89.419C847.345,1800.854,854.166,1792.624,863.429,1791.865z"/>
				<g style="opacity:0.6;">
					<path style="fill:#FFFFFF;" d="M1040.959,1827.74c-8.738-0.32-14.787,6.488-13.444,15.127l1.928,12.4
						c1.344,8.64,9.596,15.671,18.34,15.626l228.003-1.186c8.743-0.045,15.771-7.235,15.616-15.977l-0.017-0.944
						c-0.154-8.742-7.43-16.156-16.167-16.476L1040.959,1827.74z"/>
				</g>
				<path style="opacity:0.6;fill:#FFFFFF;" d="M1381.507,1789.17c24.989-2.046,71.799-3.178,97.567-3.672
					c10.919-0.209,20.534,7.138,23.15,17.74c5.081,20.593,12.128,56.359,11.462,94.296c-0.199,11.362-9.458,20.479-20.821,20.415
					l-95.103-0.529c-11.695-0.065-21.451-8.955-22.6-20.593l-8.826-89.419C1365.423,1798.159,1372.244,1789.928,1381.507,1789.17z"
					/>
				<g style="opacity:0.6;">
					<path style="fill:#FFFFFF;" d="M1559.037,1825.044c-8.738-0.32-14.787,6.488-13.444,15.127l1.928,12.4
						c1.344,8.64,9.597,15.671,18.34,15.626l228.003-1.186c8.743-0.045,15.771-7.235,15.616-15.977l-0.017-0.944
						c-0.154-8.742-7.43-16.156-16.167-16.476L1559.037,1825.044z"/>
				</g>
				<g>
					<path style="fill:#FFFFFF;" d="M999.454,2146.113c-0.079,0-0.16,0.001-0.24,0.001l-87.756-0.385
						c-12.538-0.057-22.932-8.63-24.178-19.938l-8.096-73.587c-0.475-4.321,0.845-8.598,3.716-12.052
						c3.214-3.863,8.095-6.303,13.393-6.696l0,0c7.39-0.542,17.797-1.484,28.814-2.479c23.199-2.098,52.072-4.706,68.322-4.995
						c11.791-0.12,21.83,6.806,24.662,17.06c4.66,16.877,4.425,48.873,3.732,82.96
						C1021.597,2137.075,1011.586,2146.05,999.454,2146.113z M896.787,2040.179c-3.483,0.255-6.656,1.818-8.706,4.283
						c-1.692,2.032-2.472,4.52-2.199,7.003l8.097,73.586c0.87,7.905,8.398,13.897,17.511,13.938l87.756,0.386
						c0.058,0,0.117-0.001,0.176-0.001c8.503-0.044,15.513-6.072,15.665-13.509c0.681-33.57,0.927-65.026-3.491-81.033
						c-1.98-7.172-9.48-12.131-18.046-12.113c-16.009,0.284-44.745,2.882-67.835,4.969
						C914.666,2038.688,904.232,2039.63,896.787,2040.179L896.787,2040.179z"/>
					<path style="opacity:0.6;fill:#FFFFFF;" d="M906.266,2047.729c18.428-1.356,58.473-5.632,77.475-5.968
						c8.051-0.142,15.139,4.686,17.063,11.658c3.738,13.541,3.393,40.573,2.886,65.524c-0.152,7.472-6.983,13.472-15.362,13.435
						l-70.129-0.309c-8.624-0.038-15.814-5.881-16.657-13.534l-6.471-58.805C894.403,2053.647,899.435,2048.231,906.266,2047.729z"
						/>
					<g style="opacity:0.6;">
						<path style="fill:#FFFFFF;" d="M1076.274,2096.824c2.591,9.62,11.377,16.257,21.339,16.121l811.883-11.147
							c9.185-0.126,16.493-7.739,16.244-16.921c-0.242-8.927-7.551-16.036-16.481-16.03l-811.959,0.522
							C1082.967,2069.377,1072.547,2082.984,1076.274,2096.824z"/>
					</g>
					<path style="fill:#FFFFFF;" d="M1000.432,2334.188c-0.079,0-0.16,0.001-0.24,0.001l-87.756-0.386
						c-12.538-0.057-22.932-8.629-24.178-19.938l-8.097-73.587c-0.475-4.321,0.845-8.598,3.716-12.052
						c3.214-3.863,8.095-6.303,13.393-6.696l0,0c7.39-0.542,17.797-1.484,28.814-2.479c23.199-2.098,52.071-4.706,68.322-4.995
						c0.118-0.001,0.237-0.004,0.354-0.005c11.54-0.06,21.505,6.916,24.308,17.065c4.66,16.878,4.425,48.873,3.732,82.96
						C1022.576,2325.15,1012.565,2334.125,1000.432,2334.188z M897.765,2228.253c-3.483,0.255-6.656,1.818-8.707,4.283
						c-1.692,2.032-2.472,4.521-2.199,7.003l8.097,73.586c0.87,7.905,8.398,13.897,17.511,13.939l87.756,0.385
						c0.058,0,0.117-0.001,0.176-0.001c8.504-0.044,15.513-6.072,15.665-13.509c0.681-33.571,0.927-65.027-3.492-81.034
						c-1.982-7.169-9.588-12.292-18.047-12.113c-16.007,0.284-44.744,2.881-67.833,4.969
						C915.645,2226.762,905.21,2227.705,897.765,2228.253L897.765,2228.253z"/>
					<path style="opacity:0.6;fill:#FFFFFF;" d="M907.245,2235.803c18.428-1.356,58.473-5.632,77.475-5.968
						c8.051-0.142,15.139,4.686,17.063,11.658c3.738,13.542,3.393,40.574,2.886,65.524c-0.152,7.472-6.983,13.472-15.362,13.435
						l-70.129-0.309c-8.624-0.038-15.814-5.88-16.657-13.534l-6.471-58.805C895.381,2241.722,900.414,2236.306,907.245,2235.803z"/>
					<g style="opacity:0.6;">
						<path style="fill:#FFFFFF;" d="M1077.253,2284.899c2.591,9.62,11.377,16.257,21.339,16.121l811.883-11.147
							c9.184-0.126,16.493-7.739,16.244-16.921c-0.242-8.927-7.551-16.036-16.481-16.03l-811.959,0.521
							C1083.946,2257.452,1073.525,2271.059,1077.253,2284.899z"/>
					</g>
					<path style="fill:#FFFFFF;" d="M1001.411,2522.262c-0.079,0-0.16,0.001-0.24,0.001l-87.756-0.385
						c-12.538-0.053-22.932-8.623-24.178-19.935l-8.096-73.587c-0.475-4.321,0.845-8.602,3.717-12.055
						c3.214-3.863,8.094-6.303,13.391-6.696l0,0c7.39-0.542,17.797-1.484,28.814-2.479c23.199-2.098,52.072-4.706,68.322-4.995
						c0.118,0,0.237-0.005,0.354-0.005c11.54-0.06,21.505,6.916,24.308,17.065c4.66,16.878,4.425,48.873,3.732,82.96
						C1023.555,2513.224,1013.543,2522.199,1001.411,2522.262z M898.744,2416.328c-3.483,0.255-6.656,1.818-8.706,4.283
						c-1.692,2.032-2.472,4.521-2.199,7.007l8.097,73.586c0.87,7.905,8.398,13.897,17.509,13.935l87.757,0.385
						c0.058,0,0.117,0,0.176-0.001c8.504-0.044,15.513-6.073,15.665-13.509c0.681-33.571,0.927-65.027-3.491-81.033
						c-1.982-7.169-9.588-12.318-18.047-12.113c-16.007,0.284-44.744,2.882-67.834,4.969
						C916.624,2414.837,906.189,2415.779,898.744,2416.328L898.744,2416.328z"/>
					<path style="opacity:0.6;fill:#FFFFFF;" d="M908.224,2423.878c18.428-1.356,58.473-5.632,77.475-5.968
						c8.051-0.142,15.139,4.686,17.063,11.658c3.738,13.541,3.393,40.574,2.886,65.524c-0.152,7.472-6.983,13.472-15.362,13.435
						l-70.129-0.309c-8.624-0.038-15.814-5.881-16.657-13.535l-6.471-58.805C896.36,2429.797,901.393,2424.381,908.224,2423.878z"/>
					<g style="opacity:0.6;">
						<path style="fill:#FFFFFF;" d="M1078.231,2472.973c2.591,9.62,11.377,16.258,21.339,16.121l811.883-11.147
							c9.184-0.126,16.493-7.738,16.244-16.921c-0.242-8.927-7.551-16.036-16.481-16.03l-811.959,0.522
							C1084.924,2445.527,1074.504,2459.134,1078.231,2472.973z"/>
					</g>
					<path style="fill:#FFFFFF;" d="M1002.39,2710.337c-0.079,0-0.16,0.001-0.24,0.001l-87.756-0.385
						c-12.538-0.053-22.932-8.623-24.178-19.935l-8.097-73.587c-0.475-4.321,0.845-8.602,3.718-12.055
						c3.214-3.863,8.094-6.303,13.391-6.696l0,0c7.39-0.542,17.797-1.484,28.814-2.479c23.199-2.098,52.072-4.706,68.322-4.995
						c0.118-0.001,0.237-0.005,0.354-0.005c11.54-0.06,21.505,6.916,24.308,17.065c4.66,16.877,4.425,48.873,3.732,82.96
						C1024.533,2701.298,1014.522,2710.274,1002.39,2710.337z M899.723,2604.402c-3.483,0.255-6.656,1.818-8.706,4.283
						c-1.692,2.032-2.472,4.52-2.199,7.006l8.096,73.586c0.87,7.905,8.398,13.897,17.509,13.935l87.758,0.386
						c0.058,0,0.117-0.001,0.176-0.001c8.504-0.044,15.513-6.072,15.665-13.509c0.681-33.57,0.927-65.026-3.491-81.033
						c-1.982-7.169-9.588-12.341-18.047-12.113c-16.007,0.284-44.744,2.882-67.833,4.969
						C917.602,2602.911,907.167,2603.854,899.723,2604.402L899.723,2604.402z"/>
					<path style="opacity:0.6;fill:#FFFFFF;" d="M909.202,2611.953c18.428-1.356,58.473-5.632,77.475-5.968
						c8.051-0.142,15.139,4.686,17.063,11.658c3.738,13.542,3.393,40.574,2.886,65.524c-0.152,7.473-6.983,13.472-15.362,13.435
						l-70.129-0.308c-8.624-0.038-15.814-5.881-16.657-13.535l-6.471-58.805C897.339,2617.871,902.371,2612.455,909.202,2611.953z"
						/>
					<g style="opacity:0.6;">
						<path style="fill:#FFFFFF;" d="M1079.21,2661.048L1079.21,2661.048c2.591,9.621,11.377,16.258,21.339,16.121l811.883-11.147
							c9.184-0.126,16.493-7.739,16.244-16.921c-0.242-8.927-7.551-16.036-16.481-16.03l-811.959,0.521
							C1085.903,2633.601,1075.483,2647.208,1079.21,2661.048z"/>
					</g>
					
						<linearGradient id="SVGID_00000003083759889567148700000005920457236000604819_" gradientUnits="userSpaceOnUse" x1="1023.7131" y1="2066.6836" x2="575.6216" y2="2831.4705" gradientTransform="matrix(1 -0.0052 0.0052 1 378.2248 -224.4017)">
						<stop  offset="0" style="stop-color:#A737D5"/>
						<stop  offset="1" style="stop-color:#EF497A"/>
					</linearGradient>
					<path style="fill:url(#SVGID_00000003083759889567148700000005920457236000604819_);" d="M912.998,2623.479L912.998,2623.479
						c6.495-3.856,14.89-1.619,18.605,4.958l17.47,30.937c1.748,3.097,6.28,2.877,7.72-0.375l42.432-95.798
						c2.117-4.779,9.225-3.204,9.174,2.022c-0.286,29.237-7.754,84.847-54.223,131.605c0,0-25.794-9.872-46.761-55.285
						C904.387,2634.983,906.786,2627.168,912.998,2623.479z"/>
				</g>
			</g>
			<g>
				<path style="fill:#7D97F4;" d="M751.331,1076.71c-0.284-25.568,22.099-45.474,47.455-42.17
					c168.161,21.914,746.382,89.386,1223.954,50.225c21.779-1.786,40.773,14.624,42.047,36.439l104.567,1791.521
					c1.434,24.565-17.22,45.674-41.775,47.256c-200.876,12.937-1028.163,63.211-1323.49,33.832
					c-17.974-1.788-31.689-16.842-31.889-34.904L751.331,1076.71z"/>
				<path style="fill:#BDD0FB;" d="M771.359,1121.513c-0.273-24.605,21.267-43.762,45.668-40.582
					c161.829,21.089,718.276,86.021,1177.865,48.334c20.959-1.719,39.238,14.073,40.463,35.067l100.63,1724.061
					c1.38,23.639-16.572,43.954-40.203,45.476c-193.312,12.45-989.447,60.831-1273.653,32.557
					c-17.297-1.721-30.496-16.208-30.689-33.59L771.359,1121.513z"/>
				<path style="fill:#BDD0FB;" d="M868.033,1269.315l17.582,339.335c0.585,11.286,9.779,20.214,21.112,20.474
					c63.063,1.445,259.565,5.2,370.474-1.143c12.546-0.718,22.421-10.89,22.772-23.413c1.784-63.664,5.45-248.956-9.503-326.329
					c-2.416-12.498-13.249-21.609-26.011-21.987l-372.757-11.054C878.259,1244.8,867.339,1255.927,868.033,1269.315z"/>
				
					<ellipse transform="matrix(0.2669 -0.9637 0.9637 0.2669 -527.5912 2063.1184)" style="fill:#91B3FA;" cx="1092.241" cy="1378.332" rx="76.328" ry="76.329"/>
				<path style="fill:#91B3FA;" d="M977.471,1603.03l243.169-1.265c14.908-0.078,23.755-16.586,15.662-29.107
					c-20.823-32.212-64.285-79.468-139.117-76.936c-72.122,2.44-114.653,45.551-135.986,76.422
					C952.143,1585.249,961.541,1603.113,977.471,1603.03z"/>
				<g style="opacity:0.6;">
					<path style="fill:#FFFFFF;" d="M1933,1280.617c8.743-0.046,15.705-5.663,15.47-12.484c-0.235-6.821-7.58-12.491-16.323-12.602
						l-440.895-5.562c-8.743-0.11-13.484,6.534-10.537,14.766l1.158,3.235c2.947,8.232,12.512,14.929,21.256,14.884L1933,1280.617z"
						/>
				</g>
				<g style="opacity:0.6;">
					<path style="fill:#FFFFFF;" d="M1491.612,1318.894c-8.743-0.11-13.484,6.534-10.537,14.766l1.158,3.235
						c2.947,8.232,12.512,14.929,21.256,14.884l429.87-2.237c8.743-0.046,15.705-5.663,15.47-12.484
						c-0.235-6.821-7.58-12.491-16.323-12.602L1491.612,1318.894z"/>
				</g>
				<g style="opacity:0.6;">
					<path style="fill:#FFFFFF;" d="M1491.976,1388.821c-8.743-0.11-13.484,6.534-10.537,14.766l1.158,3.235
						c2.947,8.232,12.512,14.93,21.256,14.884l429.87-2.237c8.743-0.046,15.705-5.663,15.47-12.484
						c-0.235-6.821-7.58-12.491-16.323-12.602L1491.976,1388.821z"/>
				</g>
				<g style="opacity:0.6;">
					<path style="fill:#FFFFFF;" d="M1978.586,1756.469c8.743-0.046,15.499-5.662,15.013-12.482
						c-0.486-6.819-8.037-12.418-16.781-12.441l-1036.816-2.777c-8.743-0.023-11.412,5.531-5.93,12.342l6.697,8.322
						c5.482,6.812,17.121,12.347,25.864,12.302L1978.586,1756.469z"/>
				</g>
				<g style="opacity:0.6;">
					<path style="fill:#FFFFFF;" d="M940.361,1797.695c-8.743-0.023-11.412,5.531-5.93,12.342l6.697,8.322
						c5.482,6.812,17.121,12.347,25.864,12.302l1011.952-5.266c8.743-0.046,15.499-5.662,15.013-12.482
						c-0.486-6.819-8.037-12.418-16.781-12.441L940.361,1797.695z"/>
				</g>
				<path style="opacity:0.6;fill:#FFFFFF;" d="M934.789,1912.796c24.989-2.046,71.799-3.178,97.567-3.672
					c10.919-0.209,20.534,7.137,23.15,17.74c5.081,20.593,12.128,56.359,11.462,94.296c-0.2,11.362-9.458,20.478-20.822,20.415
					l-95.102-0.529c-11.695-0.065-21.451-8.955-22.6-20.593l-8.826-89.419C918.705,1921.785,925.525,1913.554,934.789,1912.796z"/>
				<g style="opacity:0.6;">
					<path style="fill:#FFFFFF;" d="M1112.318,1948.67c-8.738-0.32-14.787,6.488-13.444,15.127l1.928,12.4
						c1.344,8.64,9.596,15.671,18.34,15.626l228.003-1.186c8.743-0.046,15.771-7.235,15.616-15.977l-0.017-0.944
						c-0.154-8.742-7.43-16.156-16.167-16.476L1112.318,1948.67z"/>
				</g>
				<path style="opacity:0.6;fill:#FFFFFF;" d="M1452.866,1910.1c24.989-2.046,71.799-3.178,97.567-3.672
					c10.919-0.209,20.534,7.137,23.15,17.74c5.081,20.593,12.128,56.359,11.462,94.296c-0.199,11.362-9.458,20.478-20.821,20.415
					l-95.103-0.529c-11.695-0.065-21.451-8.955-22.6-20.594l-8.826-89.419C1436.783,1919.089,1443.603,1910.858,1452.866,1910.1z"/>
				<g style="opacity:0.6;">
					<path style="fill:#FFFFFF;" d="M1630.396,1945.975c-8.738-0.32-14.787,6.488-13.444,15.127l1.928,12.4
						c1.344,8.64,9.597,15.671,18.34,15.626l228.003-1.186c8.743-0.046,15.771-7.235,15.616-15.977l-0.017-0.944
						c-0.154-8.742-7.43-16.156-16.167-16.476L1630.396,1945.975z"/>
				</g>
				<g>
					<path style="opacity:0.6;fill:#FFFFFF;" d="M1070.813,2267.044c-0.079,0-0.16,0.001-0.24,0.001l-87.756-0.385
						c-12.538-0.057-22.932-8.63-24.178-19.938l-8.097-73.586c-0.475-4.321,0.845-8.598,3.716-12.052
						c3.214-3.863,8.095-6.304,13.393-6.696l0,0c7.39-0.542,17.797-1.484,28.814-2.479c23.199-2.098,52.071-4.706,68.322-4.995
						c11.791-0.12,21.83,6.806,24.662,17.06c4.66,16.877,4.425,48.873,3.732,82.96
						C1092.957,2258.005,1082.946,2266.98,1070.813,2267.044z M968.146,2161.109c-3.483,0.255-6.656,1.818-8.707,4.283
						c-1.692,2.032-2.472,4.52-2.199,7.003l8.096,73.587c0.87,7.905,8.398,13.897,17.511,13.938l87.756,0.386
						c0.058,0,0.117,0,0.176-0.001c8.504-0.044,15.513-6.072,15.665-13.509c0.681-33.571,0.927-65.026-3.492-81.033
						c-1.98-7.172-9.479-12.131-18.046-12.113c-16.009,0.284-44.745,2.881-67.835,4.969
						C986.026,2159.618,975.591,2160.561,968.146,2161.109L968.146,2161.109z"/>
					<path style="fill:#BDD0FB;" d="M977.626,2168.659c18.428-1.356,58.473-5.632,77.475-5.968
						c8.051-0.142,15.139,4.686,17.063,11.658c3.738,13.541,3.393,40.573,2.886,65.524c-0.152,7.472-6.983,13.472-15.362,13.435
						L989.559,2253c-8.624-0.038-15.814-5.881-16.657-13.534l-6.471-58.805C965.762,2174.577,970.795,2169.162,977.626,2168.659z"/>
					<g style="opacity:0.6;">
						<path style="fill:#FFFFFF;" d="M1147.634,2217.754c2.591,9.62,11.377,16.258,21.339,16.121l811.883-11.147
							c9.184-0.126,16.493-7.739,16.244-16.92c-0.242-8.927-7.551-16.036-16.481-16.031l-811.959,0.522
							C1154.326,2190.308,1143.906,2203.915,1147.634,2217.754z"/>
					</g>
					<path style="opacity:0.6;fill:#FFFFFF;" d="M1071.792,2455.118c-0.079,0-0.16,0.001-0.24,0.001l-87.756-0.386
						c-12.538-0.057-22.932-8.629-24.178-19.938l-8.097-73.587c-0.475-4.321,0.845-8.598,3.716-12.052
						c3.214-3.863,8.095-6.303,13.393-6.696l0,0c7.39-0.542,17.797-1.484,28.814-2.479c23.199-2.098,52.072-4.706,68.322-4.995
						c0.118,0,0.237-0.004,0.354-0.005c11.54-0.06,21.505,6.916,24.308,17.065c4.66,16.878,4.425,48.873,3.732,82.96
						C1093.936,2446.08,1083.924,2455.055,1071.792,2455.118z M969.125,2349.184c-3.483,0.255-6.656,1.818-8.706,4.283
						c-1.692,2.032-2.472,4.521-2.199,7.003l8.097,73.586c0.87,7.905,8.398,13.897,17.511,13.939l87.756,0.385
						c0.058,0,0.117,0,0.176-0.001c8.504-0.044,15.513-6.072,15.665-13.509c0.681-33.571,0.927-65.027-3.491-81.034
						c-1.982-7.169-9.588-12.292-18.047-12.113c-16.007,0.284-44.744,2.881-67.833,4.969
						C987.005,2347.692,976.57,2348.635,969.125,2349.184L969.125,2349.184z"/>
					<path style="fill:#BDD0FB;" d="M978.604,2356.734c18.428-1.356,58.473-5.632,77.475-5.968
						c8.051-0.142,15.139,4.686,17.063,11.658c3.738,13.542,3.393,40.574,2.886,65.524c-0.152,7.473-6.983,13.472-15.362,13.435
						l-70.129-0.309c-8.624-0.038-15.814-5.88-16.657-13.534l-6.471-58.805C966.741,2362.652,971.774,2357.236,978.604,2356.734z"/>
					<g style="opacity:0.6;">
						<path style="fill:#FFFFFF;" d="M1148.612,2405.829c2.591,9.62,11.377,16.257,21.339,16.121l811.883-11.147
							c9.185-0.126,16.493-7.739,16.244-16.921c-0.242-8.927-7.551-16.036-16.481-16.03l-811.959,0.521
							C1155.305,2378.382,1144.885,2391.989,1148.612,2405.829z"/>
					</g>
					<path style="opacity:0.6;fill:#FFFFFF;" d="M1072.77,2643.192c-0.079,0-0.16,0.001-0.24,0.001l-87.756-0.385
						c-12.538-0.053-22.932-8.623-24.178-19.935l-8.097-73.587c-0.475-4.321,0.845-8.602,3.718-12.055
						c3.214-3.863,8.094-6.303,13.391-6.696l0,0c7.39-0.542,17.797-1.484,28.814-2.479c23.198-2.098,52.071-4.706,68.322-4.995
						c0.118-0.001,0.237-0.005,0.354-0.006c11.54-0.06,21.505,6.916,24.308,17.065c4.66,16.878,4.425,48.873,3.732,82.96
						C1094.914,2634.154,1084.903,2643.129,1072.77,2643.192z M970.103,2537.258c-3.483,0.255-6.656,1.818-8.706,4.283
						c-1.692,2.032-2.472,4.521-2.199,7.007l8.096,73.587c0.87,7.905,8.398,13.897,17.509,13.935l87.757,0.386
						c0.058,0,0.117-0.001,0.176-0.001c8.504-0.044,15.513-6.073,15.665-13.509c0.681-33.57,0.927-65.027-3.491-81.033
						c-1.982-7.169-9.588-12.318-18.047-12.113c-16.007,0.284-44.744,2.882-67.833,4.969
						C987.983,2535.767,977.548,2536.709,970.103,2537.258L970.103,2537.258z"/>
					<path style="fill:#BDD0FB;" d="M979.583,2544.808c18.428-1.356,58.473-5.633,77.475-5.968
						c8.052-0.142,15.139,4.686,17.063,11.658c3.738,13.541,3.393,40.574,2.886,65.524c-0.152,7.473-6.983,13.472-15.362,13.435
						l-70.129-0.308c-8.624-0.038-15.814-5.881-16.657-13.535l-6.471-58.805C967.719,2550.727,972.752,2545.311,979.583,2544.808z"
						/>
					<g style="opacity:0.6;">
						<path style="fill:#FFFFFF;" d="M1149.591,2593.903c2.591,9.62,11.377,16.258,21.339,16.121l811.883-11.148
							c9.184-0.126,16.493-7.738,16.244-16.92c-0.242-8.927-7.551-16.036-16.481-16.03l-811.959,0.521
							C1156.284,2566.457,1145.863,2580.064,1149.591,2593.903z"/>
					</g>
					<path style="opacity:0.6;fill:#FFFFFF;" d="M1073.749,2831.267c-0.079,0-0.16,0.001-0.24,0.001l-87.756-0.386
						c-12.538-0.053-22.932-8.623-24.178-19.935l-8.097-73.587c-0.475-4.321,0.845-8.602,3.718-12.055
						c3.214-3.863,8.094-6.303,13.391-6.696l0,0c7.39-0.542,17.797-1.484,28.814-2.479c23.199-2.098,52.072-4.706,68.322-4.995
						c0.118-0.001,0.237-0.005,0.354-0.005c11.54-0.06,21.505,6.916,24.308,17.065c4.66,16.877,4.425,48.873,3.732,82.96
						C1095.893,2822.229,1085.881,2831.204,1073.749,2831.267z M971.082,2725.333c-3.483,0.255-6.656,1.818-8.706,4.283
						c-1.692,2.032-2.472,4.52-2.199,7.006l8.097,73.586c0.87,7.906,8.398,13.897,17.509,13.935l87.757,0.386
						c0.058,0,0.117-0.001,0.176-0.001c8.504-0.044,15.513-6.072,15.665-13.509c0.681-33.57,0.927-65.026-3.491-81.033
						c-1.982-7.169-9.588-12.341-18.047-12.113c-16.007,0.284-44.744,2.882-67.833,4.969
						C988.962,2723.841,978.527,2724.784,971.082,2725.333L971.082,2725.333z"/>
					<path style="fill:#BDD0FB;" d="M980.562,2732.883c18.428-1.356,58.473-5.632,77.475-5.968
						c8.052-0.142,15.139,4.686,17.063,11.658c3.738,13.542,3.393,40.574,2.886,65.524c-0.152,7.473-6.983,13.472-15.362,13.435
						l-70.129-0.308c-8.624-0.038-15.814-5.881-16.657-13.535l-6.471-58.805C968.698,2738.802,973.731,2733.385,980.562,2732.883z"
						/>
					<g style="opacity:0.6;">
						<path style="fill:#FFFFFF;" d="M1150.569,2781.978L1150.569,2781.978c2.591,9.62,11.377,16.258,21.339,16.121l811.883-11.147
							c9.185-0.126,16.493-7.739,16.244-16.921c-0.242-8.926-7.551-16.036-16.481-16.03l-811.959,0.521
							C1157.262,2754.532,1146.842,2768.138,1150.569,2781.978z"/>
					</g>
				</g>
			</g>
		</g>
		<g>
			<g>
				
					<linearGradient id="SVGID_00000019665644041444397830000018247528618790196869_" gradientUnits="userSpaceOnUse" x1="1996.431" y1="2693.1895" x2="2589.3806" y2="2646.0232">
					<stop  offset="0" style="stop-color:#FE7062"/>
					<stop  offset="1" style="stop-color:#FF928E"/>
				</linearGradient>
				
					<rect x="2764.462" y="2216.31" style="fill:url(#SVGID_00000019665644041444397830000018247528618790196869_);" width="414.105" height="798.632"/>
				
					<linearGradient id="SVGID_00000070118140600164468670000013722755996285589385_" gradientUnits="userSpaceOnUse" x1="3548.9438" y1="1531.298" x2="3161.5066" y2="1938.9501">
					<stop  offset="0" style="stop-color:#E1473D"/>
					<stop  offset="1" style="stop-color:#E9605A"/>
				</linearGradient>
				<path style="fill:url(#SVGID_00000070118140600164468670000013722755996285589385_);" d="M3234.03,2285.328h-489.288V1945.17
					l384.526-19.719l124.036,329.691C3259.835,2269.224,3249.552,2285.328,3234.03,2285.328z"/>
				
					<linearGradient id="SVGID_00000181780100184530136140000000194937779092829357_" gradientUnits="userSpaceOnUse" x1="2916.4236" y1="1996.6252" x2="3233.1125" y2="1204.9026">
					<stop  offset="0" style="stop-color:#E1473D"/>
					<stop  offset="1" style="stop-color:#E9605A"/>
				</linearGradient>
				<path style="fill:url(#SVGID_00000181780100184530136140000000194937779092829357_);" d="M3129.269,1930.38l-364.807,19.719
					v-39.439l340.894-19.719c13.207,0,23.913,10.706,23.913,23.912V1930.38z"/>
				<g style="opacity:0.89;">
					
						<linearGradient id="SVGID_00000107585587135272387740000002631493008036529815_" gradientUnits="userSpaceOnUse" x1="2854.4309" y1="2615.6262" x2="3091.0627" y2="2615.6262">
						<stop  offset="0" style="stop-color:#E1473D"/>
						<stop  offset="1" style="stop-color:#E9605A"/>
					</linearGradient>
					<path style="fill:url(#SVGID_00000107585587135272387740000002631493008036529815_);" d="M3089.94,2798.03h-234.386
						c-0.62,0-1.123-0.503-1.123-1.123v-362.561c0-0.62,0.503-1.123,1.123-1.123h234.385c0.62,0,1.123,0.503,1.123,1.123v362.561
						C3091.063,2797.527,3090.56,2798.03,3089.94,2798.03z"/>
					<g>
						
							<linearGradient id="SVGID_00000114066729031370169980000012153694745453674659_" gradientUnits="userSpaceOnUse" x1="3720.499" y1="2164.5403" x2="2124.6816" y2="3061.1299">
							<stop  offset="0" style="stop-color:#FEBBBA"/>
							<stop  offset="1" style="stop-color:#FF928E"/>
						</linearGradient>
						<path style="fill:url(#SVGID_00000114066729031370169980000012153694745453674659_);" d="M2962.935,2778.311h-90.626
							c-0.345,0-0.624-0.28-0.624-0.624v-324.12c0-0.345,0.28-0.624,0.624-0.624h90.626c0.345,0,0.624,0.28,0.624,0.624v324.12
							C2963.559,2778.031,2963.28,2778.311,2962.935,2778.311z"/>
						
							<linearGradient id="SVGID_00000052814134332311611110000006045325558971925438_" gradientUnits="userSpaceOnUse" x1="2244.3311" y1="3343.6653" x2="3597.4329" y2="2086.4087">
							<stop  offset="0" style="stop-color:#FEBBBA"/>
							<stop  offset="1" style="stop-color:#FF928E"/>
						</linearGradient>
						<path style="fill:url(#SVGID_00000052814134332311611110000006045325558971925438_);" d="M3073.184,2778.311h-90.625
							c-0.345,0-0.624-0.28-0.624-0.624v-324.12c0-0.345,0.28-0.624,0.624-0.624h90.625c0.345,0,0.624,0.28,0.624,0.624v324.12
							C3073.808,2778.031,3073.529,2778.311,3073.184,2778.311z"/>
					</g>
				</g>
				
					<linearGradient id="SVGID_00000127009278859973526290000018172269239348795582_" gradientUnits="userSpaceOnUse" x1="2232.3594" y1="2787.5398" x2="2298.0525" y2="1817.3076">
					<stop  offset="0" style="stop-color:#FEBBBA"/>
					<stop  offset="1" style="stop-color:#FF928E"/>
				</linearGradient>
				
					<rect x="1672.435" y="2105.389" style="fill:url(#SVGID_00000127009278859973526290000018172269239348795582_);" width="1150.639" height="909.553"/>
				
					<linearGradient id="SVGID_00000045612975451232839990000018398010648490410398_" gradientUnits="userSpaceOnUse" x1="1748.9775" y1="1708.347" x2="3042.6162" y2="2299.5808">
					<stop  offset="0" style="stop-color:#FF928E"/>
					<stop  offset="1" style="stop-color:#FE7062"/>
				</linearGradient>
				<path style="fill:url(#SVGID_00000045612975451232839990000018398010648490410398_);" d="M2795.848,1664.17H1671.818
					l-124.531,427.943c-2.911,10.003-1.242,20.742,4.577,29.46l12.808,19.185c6.826,10.226,18.502,16.395,31.028,16.395h1272.602
					c14.47,0,27.613-8.211,33.642-21.019l12.313-26.158c3.642-7.736,4.354-16.478,2.01-24.677L2795.848,1664.17z"/>
				
					<linearGradient id="SVGID_00000009568587486152932110000002737782474049689255_" gradientUnits="userSpaceOnUse" x1="2228.4092" y1="1066.3076" x2="2233.6882" y2="1657.4987">
					<stop  offset="0" style="stop-color:#E1473D"/>
					<stop  offset="1" style="stop-color:#E9605A"/>
				</linearGradient>
				<path style="fill:url(#SVGID_00000009568587486152932110000002737782474049689255_);" d="M2798.38,1664.17H1668.797v-19.398
					c0-7.336,6.047-13.314,13.581-13.425l1102.004-16.269c7.697-0.114,13.999,5.93,13.999,13.425V1664.17z"/>
				
					<linearGradient id="SVGID_00000013880814176374539890000002936376174218606757_" gradientUnits="userSpaceOnUse" x1="2207.8691" y1="2797.6648" x2="2229.3362" y2="3114.3025">
					<stop  offset="0" style="stop-color:#E1473D"/>
					<stop  offset="1" style="stop-color:#E9605A"/>
				</linearGradient>
				<path style="fill:url(#SVGID_00000013880814176374539890000002936376174218606757_);" d="M2399.029,3014.942h-356.754v-57.348
					c0-1.751,1.42-3.171,3.171-3.171h350.413c1.751,0,3.17,1.419,3.17,3.171V3014.942z"/>
				
					<linearGradient id="SVGID_00000088814583217288118420000009763690582716755584_" gradientUnits="userSpaceOnUse" x1="2223.4534" y1="2080.0168" x2="2215.9807" y2="3783.7725">
					<stop  offset="0" style="stop-color:#E1473D"/>
					<stop  offset="1" style="stop-color:#E9605A"/>
				</linearGradient>
				<path style="fill:url(#SVGID_00000088814583217288118420000009763690582716755584_);" d="M2342.4,2954.423h-243.497v-471.462
					c0-1.966,1.594-3.56,3.56-3.56h236.377c1.966,0,3.56,1.594,3.56,3.56V2954.423z"/>
				
					<linearGradient id="SVGID_00000173158404934495343730000004576306287683705518_" gradientUnits="userSpaceOnUse" x1="2098.9038" y1="2415.4634" x2="2342.4004" y2="2415.4634">
					<stop  offset="0" style="stop-color:#FEBBBA"/>
					<stop  offset="1" style="stop-color:#FF928E"/>
				</linearGradient>
				<path style="opacity:0.9;fill:url(#SVGID_00000173158404934495343730000004576306287683705518_);" d="M2325.208,2447.428
					h-209.111c-9.495,0-17.193-7.698-17.193-17.193v-15.018c0-9.033,6.99-16.526,16.001-17.152l209.111-14.526
					c9.94-0.69,18.384,7.187,18.384,17.152v29.543C2342.4,2439.731,2334.703,2447.428,2325.208,2447.428z"/>
				<g>
					
						<linearGradient id="SVGID_00000137818067325363960770000001189608910180122247_" gradientUnits="userSpaceOnUse" x1="2714.9646" y1="1772.47" x2="2326.4773" y2="2776.0608">
						<stop  offset="0" style="stop-color:#FF928E"/>
						<stop  offset="1" style="stop-color:#FE7062"/>
					</linearGradient>
					<path style="opacity:0.9;fill:url(#SVGID_00000137818067325363960770000001189608910180122247_);" d="M2535.768,2236.408
						h-2.314c-60.139,0-112.788,42.577-112.788,102.716v108.305h115.102V2236.408z"/>
					
						<linearGradient id="SVGID_00000090263529894617199260000004487693817820905148_" gradientUnits="userSpaceOnUse" x1="2805.2979" y1="1807.4402" x2="2416.8103" y2="2811.0313">
						<stop  offset="0" style="stop-color:#FF928E"/>
						<stop  offset="1" style="stop-color:#FE7062"/>
					</linearGradient>
					<path style="opacity:0.9;fill:url(#SVGID_00000090263529894617199260000004487693817820905148_);" d="M2420.666,2479.401
						v318.628c0,10.729,12.594,27.363,23.323,27.363h91.779v-345.991H2420.666z"/>
					
						<linearGradient id="SVGID_00000034809258406724094230000004050036815546003384_" gradientUnits="userSpaceOnUse" x1="2823.1221" y1="1814.3386" x2="2434.6345" y2="2817.9294">
						<stop  offset="0" style="stop-color:#FF928E"/>
						<stop  offset="1" style="stop-color:#FE7062"/>
					</linearGradient>
					<path style="opacity:0.9;fill:url(#SVGID_00000034809258406724094230000004050036815546003384_);" d="M2567.196,2236.408h-5.85
						v211.02h115.102v-108.305C2676.448,2278.985,2627.335,2236.408,2567.196,2236.408z"/>
					
						<linearGradient id="SVGID_00000106149109514951742330000015308586429466662820_" gradientUnits="userSpaceOnUse" x1="2923.8542" y1="1853.3312" x2="2535.3667" y2="2856.9214">
						<stop  offset="0" style="stop-color:#FF928E"/>
						<stop  offset="1" style="stop-color:#FE7062"/>
					</linearGradient>
					<path style="opacity:0.9;fill:url(#SVGID_00000106149109514951742330000015308586429466662820_);" d="M2561.346,2825.393
						h95.314c10.729,0,19.787-16.634,19.787-27.363v-318.628h-115.102V2825.393z"/>
				</g>
				<g>
					
						<linearGradient id="SVGID_00000063616430616128500810000008378838489459581631_" gradientUnits="userSpaceOnUse" x1="2066.5977" y1="1910.3658" x2="1670.0183" y2="2752.0874">
						<stop  offset="0" style="stop-color:#FF928E"/>
						<stop  offset="1" style="stop-color:#FE7062"/>
					</linearGradient>
					<path style="opacity:0.9;fill:url(#SVGID_00000063616430616128500810000008378838489459581631_);" d="M1901.799,2236.408
						h-2.314c-60.139,0-112.788,42.577-112.788,102.716v108.305h115.102V2236.408z"/>
					
						<linearGradient id="SVGID_00000077299067125217572970000004613274335559949745_" gradientUnits="userSpaceOnUse" x1="2170.7395" y1="1959.4332" x2="1774.1608" y2="2801.1536">
						<stop  offset="0" style="stop-color:#FF928E"/>
						<stop  offset="1" style="stop-color:#FE7062"/>
					</linearGradient>
					<path style="opacity:0.9;fill:url(#SVGID_00000077299067125217572970000004613274335559949745_);" d="M1786.697,2479.401
						v318.628c0,10.729,12.594,27.363,23.323,27.363h91.779v-345.991H1786.697z"/>
					
						<linearGradient id="SVGID_00000053505986846307900770000016312096607847693479_" gradientUnits="userSpaceOnUse" x1="2166.1541" y1="1957.2738" x2="1769.5746" y2="2798.9954">
						<stop  offset="0" style="stop-color:#FEBBBA"/>
						<stop  offset="1" style="stop-color:#FF928E"/>
					</linearGradient>
					<path style="fill:url(#SVGID_00000053505986846307900770000016312096607847693479_);" d="M1933.226,2236.408h-5.85v211.02
						h115.102v-108.305C2042.479,2278.985,1993.365,2236.408,1933.226,2236.408z"/>
					
						<linearGradient id="SVGID_00000024692991872383872180000001753863669308337539_" gradientUnits="userSpaceOnUse" x1="2281.7625" y1="2011.7428" x2="1885.1833" y2="2853.4636">
						<stop  offset="0" style="stop-color:#FEBBBA"/>
						<stop  offset="1" style="stop-color:#FF928E"/>
					</linearGradient>
					<path style="fill:url(#SVGID_00000024692991872383872180000001753863669308337539_);" d="M1927.377,2825.393h95.314
						c10.729,0,19.787-16.634,19.787-27.363v-318.628h-115.102V2825.393z"/>
				</g>
				<path style="opacity:0.56;fill:#FFFFFF;" d="M1984.798,2106.724h-351.771c-8.681,0-16.642-3.987-21.841-10.939
					c-5.201-6.953-6.774-15.716-4.321-24.044l100.486-341.037c0.208-0.706,0.95-1.117,1.656-0.903
					c0.708,0.208,1.111,0.95,0.903,1.656l-100.486,341.037c-2.213,7.513-0.792,15.42,3.898,21.692s11.872,9.869,19.704,9.869
					h351.771c0.738,0,1.334,0.597,1.334,1.334C1986.133,2106.127,1985.536,2106.724,1984.798,2106.724z"/>
				<path style="fill:#FFFFFF;" d="M2186.841,2826.727h-36.751c-12.255,0-22.224-9.969-22.224-22.225v-271.685
					c0-12.255,9.969-22.224,22.224-22.224h36.751c12.255,0,22.224,9.969,22.224,22.224v271.685
					C2209.065,2816.757,2199.095,2826.727,2186.841,2826.727z M2150.09,2513.262c-10.783,0-19.556,8.774-19.556,19.556v271.685
					c0,10.782,8.773,19.556,19.556,19.556h36.751c10.783,0,19.556-8.773,19.556-19.556v-271.685
					c0-10.782-8.773-19.556-19.556-19.556H2150.09z"/>
				
					<linearGradient id="SVGID_00000090269669122194515240000009524857767884435644_" gradientUnits="userSpaceOnUse" x1="2230.4192" y1="2668.6602" x2="2311.6191" y2="2668.6602">
					<stop  offset="0" style="stop-color:#FEBBBA"/>
					<stop  offset="1" style="stop-color:#FF928E"/>
				</linearGradient>
				<path style="opacity:0.9;fill:url(#SVGID_00000090269669122194515240000009524857767884435644_);" d="M2289.395,2826.727
					h-36.751c-12.255,0-22.225-9.969-22.225-22.225v-271.685c0-12.255,9.97-22.224,22.225-22.224h36.751
					c12.255,0,22.225,9.969,22.225,22.224v271.685C2311.619,2816.757,2301.649,2826.727,2289.395,2826.727z M2252.644,2513.262
					c-10.783,0-19.556,8.774-19.556,19.556v271.685c0,10.782,8.773,19.556,19.556,19.556h36.751
					c10.783,0,19.556-8.773,19.556-19.556v-271.685c0-10.782-8.773-19.556-19.556-19.556H2252.644z"/>
				<path style="fill:#FFFFFF;" d="M2186.841,2918.322h-36.751c-12.255,0-22.224-9.969-22.224-22.224v-31.25
					c0-12.254,9.969-22.223,22.224-22.223h36.751c12.255,0,22.224,9.969,22.224,22.223v31.25
					C2209.065,2908.353,2199.095,2918.322,2186.841,2918.322z M2150.09,2845.294c-10.783,0-19.556,8.772-19.556,19.555v31.25
					c0,10.782,8.773,19.556,19.556,19.556h36.751c10.783,0,19.556-8.773,19.556-19.556v-31.25c0-10.783-8.773-19.555-19.556-19.555
					H2150.09z"/>
				
					<linearGradient id="SVGID_00000024698708963639984750000006195524454184900775_" gradientUnits="userSpaceOnUse" x1="2230.4192" y1="2880.4736" x2="2311.6191" y2="2880.4736">
					<stop  offset="0" style="stop-color:#FEBBBA"/>
					<stop  offset="1" style="stop-color:#FF928E"/>
				</linearGradient>
				<path style="opacity:0.9;fill:url(#SVGID_00000024698708963639984750000006195524454184900775_);" d="M2289.395,2918.322
					h-36.751c-12.255,0-22.225-9.969-22.225-22.224v-31.25c0-12.254,9.97-22.223,22.225-22.223h36.751
					c12.255,0,22.225,9.969,22.225,22.223v31.25C2311.619,2908.353,2301.649,2918.322,2289.395,2918.322z M2252.644,2845.294
					c-10.783,0-19.556,8.772-19.556,19.555v31.25c0,10.782,8.773,19.556,19.556,19.556h36.751c10.783,0,19.556-8.773,19.556-19.556
					v-31.25c0-10.783-8.773-19.555-19.556-19.555H2252.644z"/>
				<path style="opacity:0.56;fill:#FFFFFF;" d="M2686.406,2845.294h-277.075c-15.888,0-28.813-12.926-28.813-28.814v-479.729
					c0-75.863,61.72-137.581,137.582-137.581h59.537c75.863,0,137.581,61.718,137.581,137.581v479.729
					C2715.219,2832.368,2702.294,2845.294,2686.406,2845.294z M2518.101,2201.839c-74.392,0-134.914,60.521-134.914,134.912v479.729
					c0,14.417,11.729,26.145,26.144,26.145h277.075c14.416,0,26.144-11.729,26.144-26.145v-479.729
					c0-74.392-60.521-134.912-134.913-134.912H2518.101z"/>
				<path style="opacity:0.56;fill:#FFFFFF;" d="M2052.561,2845.294h-277.075c-15.888,0-28.813-12.926-28.813-28.814v-479.729
					c0-75.863,61.718-137.581,137.581-137.581h59.537c75.863,0,137.583,61.718,137.583,137.581v479.729
					C2081.374,2832.368,2068.449,2845.294,2052.561,2845.294z M1884.255,2201.839c-74.392,0-134.912,60.521-134.912,134.912v479.729
					c0,14.417,11.729,26.145,26.144,26.145h277.075c14.416,0,26.144-11.729,26.144-26.145v-479.729
					c0-74.392-60.522-134.912-134.914-134.912H1884.255z"/>
				<path style="opacity:0.56;fill:#FFFFFF;" d="M2834.306,2006.93c-0.573,0-1.102-0.371-1.277-0.947l-78.151-258.272
					c-5.34-17.649-21.307-29.603-39.733-29.748c-204.598-1.614-329.875-1.551-335.113,0.171c-0.689,0.225-1.455-0.119-1.703-0.792
					c-0.249-0.673,0.046-1.411,0.71-1.683c6.27-2.579,213.285-1.336,336.126-0.364c19.602,0.155,36.587,12.872,42.267,31.643
					l78.151,258.272c0.214,0.706-0.185,1.45-0.89,1.664C2834.564,2006.911,2834.434,2006.93,2834.306,2006.93z"/>
			</g>
		</g>
		<g>
			<g>
				<path style="fill:#7D97F4;" d="M2886.716,2971.269c0,0,101.757-458.013-35.055-394.987
					c-136.813,63.026-13.835,382.754,0,402.746C2865.495,2999.019,2878.728,3010.502,2886.716,2971.269z"/>
				<path style="fill:#91B3FA;" d="M2876.494,2983.795c0,0-44.354-316.947,82.548-292.699
					c126.902,24.248-65.299,290.05-66.531,301.482C2891.279,3004.01,2876.494,2983.795,2876.494,2983.795z"/>
				<path style="fill:#91B3FA;" d="M2860.229,2985.5c0,0-30.173-282.105-127.727-236.406
					c-97.554,45.699,113.229,237.49,116.607,247.111C2852.486,3005.827,2860.229,2985.5,2860.229,2985.5z"/>
				<g style="opacity:0.7;">
					<path style="fill:#FFFFFF;" d="M2895.472,2629.346c-1.339,0-2.573-0.87-2.974-2.218c-3.955-13.262-10.459-22.152-19.332-26.419
						c-12.492-6.014-25.59-0.847-25.722-0.796c-1.589,0.643-3.398-0.125-4.04-1.714c-0.645-1.589,0.125-3.397,1.711-4.04
						c0.638-0.258,15.792-6.236,30.742,0.957c10.512,5.057,18.112,15.23,22.59,30.239c0.49,1.642-0.444,3.371-2.086,3.861
						C2896.064,2629.303,2895.764,2629.346,2895.472,2629.346z"/>
					<path style="fill:#FFFFFF;" d="M2895.468,2943.33c-0.576,0-1.161-0.161-1.681-0.499c-1.438-0.929-1.852-2.851-0.921-4.29
						c0.484-0.747,48.677-75.571,80.488-144.616c9.732-21.114,11.183-39.516,4.317-54.691c-10.334-22.84-36.22-30.774-36.48-30.851
						c-1.642-0.489-2.579-2.218-2.089-3.859c0.49-1.642,2.217-2.574,3.859-2.089c1.175,0.349,28.877,8.847,40.366,34.241
						c7.639,16.89,6.182,37.023-4.333,59.845c-32.003,69.455-80.429,144.638-80.916,145.39
						C2897.485,2942.828,2896.488,2943.33,2895.468,2943.33z"/>
					<path style="fill:#FFFFFF;" d="M2834.595,2942.392c-1.474,0-2.78-1.051-3.05-2.552c-0.056-0.304-5.817-31.366-33.73-116.051
						c-10.643-32.294-24.761-52.077-40.826-57.214c-13.69-4.377-24.317,3.257-24.422,3.334c-1.378,1.013-3.32,0.719-4.336-0.663
						s-0.717-3.325,0.665-4.338c0.533-0.395,13.312-9.574,29.986-4.244c18.293,5.848,33.375,26.433,44.831,61.181
						c28.094,85.244,33.717,115.641,33.94,116.894c0.306,1.686-0.816,3.298-2.504,3.603
						C2834.964,2942.377,2834.777,2942.392,2834.595,2942.392z"/>
				</g>
			</g>
			<g>
				<path style="fill:#7D97F4;" d="M2779.09,2970.17l27.639,98.605c4.252,15.168,18.025,25.694,33.778,25.813l62.429,0.472
					c17.922,0.135,33.11-13.16,35.348-30.942l13.015-103.429L2779.09,2970.17z"/>
				<path style="fill:#7D97F4;" d="M2948.839,2953.595l-171.495,3.019c-8.366,0.148-15.076,7.481-15.02,16.378
					c0.056,8.891,6.851,16.031,15.208,15.952l171.325-1.629c9.129-0.086,16.559-7.73,16.559-17.076
					C2965.415,2960.888,2957.977,2953.434,2948.839,2953.595z"/>
			</g>
		</g>
		<g>
			<g>
				
					<linearGradient id="SVGID_00000011027281232461051230000007564891239245309361_" gradientUnits="userSpaceOnUse" x1="-3464.9126" y1="2600.1687" x2="-3053.3127" y2="2600.1687" gradientTransform="matrix(-1 0 0 1 -1161.2548 0)">
					<stop  offset="0" style="stop-color:#09005D"/>
					<stop  offset="1" style="stop-color:#1A0F91"/>
				</linearGradient>
				<path style="fill:url(#SVGID_00000011027281232461051230000007564891239245309361_);" d="M2303.161,2043.999
					c6.25,1.25-47.803,920.998-89.232,1128.143l-86.045-6.373l-19.121-930.559h-31.868l-47.803,914.625h-70.111l-66.923-1115.396
					C1892.058,2034.439,2159.753,2015.318,2303.161,2043.999z"/>
				
					<linearGradient id="SVGID_00000087411651409593112660000005812703558580712103_" gradientUnits="userSpaceOnUse" x1="-3321.0107" y1="3264.6536" x2="-3307.9644" y2="2921.0945" gradientTransform="matrix(-1 0 0 1 -1161.2548 0)">
					<stop  offset="0" style="stop-color:#4F52FF"/>
					<stop  offset="1" style="stop-color:#4042E2"/>
				</linearGradient>
				<path style="fill:url(#SVGID_00000087411651409593112660000005812703558580712103_);" d="M2213.929,3232.693
					c0,0-70.111,9.56-111.539,0c0,0-12.747-35.055,25.495-66.924c38.242-31.868,86.045,6.373,86.045,6.373V3232.693z"/>
				
					<linearGradient id="SVGID_00000005251486285222418220000015392991937781179535_" gradientUnits="userSpaceOnUse" x1="-3083.8999" y1="3273.658" x2="-3070.8535" y2="2930.0979" gradientTransform="matrix(-1 0 0 1 -1161.2548 0)">
					<stop  offset="0" style="stop-color:#4F52FF"/>
					<stop  offset="1" style="stop-color:#4042E2"/>
				</linearGradient>
				<path style="fill:url(#SVGID_00000005251486285222418220000015392991937781179535_);" d="M2029.092,3149.834
					c0,0,3.187,50.99,0,76.484c0,0-133.85,4.462-207.437,4.052c-13.516-0.075-17.307-18.489-4.946-23.954
					c23.667-10.464,66.121-45.302,142.272-56.583H2029.092z"/>
				
					<linearGradient id="SVGID_00000092452991250106785750000008988532951852522942_" gradientUnits="userSpaceOnUse" x1="-3195.6575" y1="1147.0682" x2="-3283.0134" y2="2386.863" gradientTransform="matrix(-1 0 0 1 -1161.2548 0)">
					<stop  offset="0" style="stop-color:#4F52FF"/>
					<stop  offset="1" style="stop-color:#4042E2"/>
				</linearGradient>
				<path style="fill:url(#SVGID_00000092452991250106785750000008988532951852522942_);" d="M2274.479,1301.464
					c0,0-184.837-60.55-331.432-6.373l-73.297,768.03c0,0,328.246-9.561,439.785,15.934L2274.479,1301.464z"/>
				
					<linearGradient id="SVGID_00000034781082479488529990000013895278719650922161_" gradientUnits="userSpaceOnUse" x1="-3488.6824" y1="1116.1211" x2="-3506.0774" y2="1946.7563" gradientTransform="matrix(-1 0 0 1 -1161.2548 0)">
					<stop  offset="0" style="stop-color:#09005D"/>
					<stop  offset="1" style="stop-color:#1A0F91"/>
				</linearGradient>
				<path style="fill:url(#SVGID_00000034781082479488529990000013895278719650922161_);" d="M2437.009,1365.201
					c0,0-108.353-60.55-210.332-76.484l30.571,779.564c0.761,19.407,14.718,35.766,33.762,39.574l10.86,2.172
					c10.444,2.089,20.117-6.079,19.81-16.725l-9.539-329.064c-1.719-59.276,9.079-118.248,31.685-173.071L2437.009,1365.201z"/>
				
					<linearGradient id="SVGID_00000160174318934543192930000002884158080994827427_" gradientUnits="userSpaceOnUse" x1="-3025.1326" y1="1125.8287" x2="-3042.5276" y2="1956.4617" gradientTransform="matrix(-1 0 0 1 -1161.2548 0)">
					<stop  offset="0" style="stop-color:#09005D"/>
					<stop  offset="1" style="stop-color:#1A0F91"/>
				</linearGradient>
				<path style="fill:url(#SVGID_00000160174318934543192930000002884158080994827427_);" d="M1994.037,1282.343
					c0,0-159.342,12.748-251.76,95.605l71.833,202.825c24.17,68.242,36.52,140.107,36.52,212.502l15.121,292.376
					c0.456,8.805,7.729,15.712,16.545,15.712l0,0c21.765,0,39.93-16.613,41.871-38.291L1994.037,1282.343z"/>
				
					<linearGradient id="SVGID_00000122695811236095178000000005963235880388738234_" gradientUnits="userSpaceOnUse" x1="-3284.4846" y1="1418.3711" x2="-3262.9502" y2="1234.1326" gradientTransform="matrix(-1 0 0 1 -1161.2548 0)">
					<stop  offset="0" style="stop-color:#FEBBBA"/>
					<stop  offset="1" style="stop-color:#FF928E"/>
				</linearGradient>
				<path style="fill:url(#SVGID_00000122695811236095178000000005963235880388738234_);" d="M2172.5,1186.738l2.751,90.79
					c0.272,8.977-5.296,17.067-13.767,20.055c-23.213,8.188-71.269,20.637-116.811,4.33c-9.187-3.29-14.717-12.694-13.297-22.35
					l13.65-92.826H2172.5z"/>
				
					<linearGradient id="SVGID_00000008864940449190726320000013893829610594014083_" gradientUnits="userSpaceOnUse" x1="-3256.2266" y1="1212.147" x2="-3264.4634" y2="974.7753" gradientTransform="matrix(-1 0 0 1 -1161.2548 0)">
					<stop  offset="0" style="stop-color:#FEBBBA"/>
					<stop  offset="1" style="stop-color:#FF928E"/>
				</linearGradient>
				<path style="fill:url(#SVGID_00000008864940449190726320000013893829610594014083_);" d="M2210.743,1021.022
					c0,0-15.935,162.53-50.99,203.958c0,0-105.166,9.561-143.408-12.747c0,0-27.089-81.265-23.901-189.618
					c0,0-5.222-98.599,103.572-106.759C2223.49,906.296,2210.743,1021.022,2210.743,1021.022z"/>
				
					<linearGradient id="SVGID_00000060030363787949641570000007118985280533537154_" gradientUnits="userSpaceOnUse" x1="-3144.9727" y1="1208.2882" x2="-3153.2097" y2="970.9138" gradientTransform="matrix(-1 0 0 1 -1161.2548 0)">
					<stop  offset="0" style="stop-color:#FEBBBA"/>
					<stop  offset="1" style="stop-color:#FF928E"/>
				</linearGradient>
				<path style="fill:url(#SVGID_00000060030363787949641570000007118985280533537154_);" d="M2003.597,1072.011
					c0,0-9.561-28.682-25.494-28.682c-15.934,0,3.186,76.485,25.494,76.485V1072.011z"/>
				
					<linearGradient id="SVGID_00000121989644131272220320000013695603789756708772_" gradientUnits="userSpaceOnUse" x1="-3366.8892" y1="1215.9879" x2="-3375.126" y2="978.6161" gradientTransform="matrix(-1 0 0 1 -1161.2548 0)">
					<stop  offset="0" style="stop-color:#FEBBBA"/>
					<stop  offset="1" style="stop-color:#FF928E"/>
				</linearGradient>
				<path style="fill:url(#SVGID_00000121989644131272220320000013695603789756708772_);" d="M2196.241,1079.544
					c0,0,13.341-27.131,29.13-24.981c15.789,2.148-13.472,75.355-35.576,72.348L2196.241,1079.544z"/>
				<path style="fill:#FFFFFF;" d="M2199.741,1106.772c0,0-3.573,97.083-46.274,146.322c-3.919,4.519-9.585,7.147-15.56,7.434
					c-21.795,1.049-77.511,2.922-108.927-3.338c-7.82-1.558-14.256-7.071-16.83-14.617c-7.724-22.643-21.131-58.351-16.52-140.286
					l25.629,61.071c18.986,50.468,29.291-10.794,38.108-10.082h57.363c6.046,0.488,12.748,38.242,35.149,27.181L2199.741,1106.772z"
					/>
				<path style="fill:#FFFFFF;" d="M2035.466,982.78c0,0,81.194,83.508,169.664,83.183c0,0,50.229-134.172-48.564-156.48
					c-98.792-22.308-101.979,6.373-101.979,6.373s-115.524-28.373-64.135,135.596L2035.466,982.78z"/>
				<path style="fill:#91B3FA;" d="M2067.334,3255c5.28,0,9.561-4.279,9.561-9.56V1891.031c0-5.282-4.281-9.561-9.561-9.561
					s-9.561,4.279-9.561,9.561V3245.44C2057.773,3250.721,2062.055,3255,2067.334,3255z"/>
				
					<linearGradient id="SVGID_00000103984536072997727180000011982938912063869117_" gradientUnits="userSpaceOnUse" x1="-2956.0112" y1="988.8204" x2="-3016.8958" y2="2254.3379" gradientTransform="matrix(-1 0 0 1 -1161.2548 0)">
					<stop  offset="0" style="stop-color:#09005D"/>
					<stop  offset="1" style="stop-color:#1A0F91"/>
				</linearGradient>
				<path style="fill:url(#SVGID_00000103984536072997727180000011982938912063869117_);" d="M2025.906,1871.91
					c0,0-181.65,101.979-226.267-28.682c-44.615-130.66,38.243-213.518,38.243-213.518l-95.605-251.762
					c0,0-181.651,334.619-54.176,538.578c119.432,191.091,331.431,15.934,331.431,15.934L2025.906,1871.91z"/>
				
					<linearGradient id="SVGID_00000072967602219370456730000015401010062119153851_" gradientUnits="userSpaceOnUse" x1="-3436.1958" y1="965.7194" x2="-3497.0806" y2="2231.2388" gradientTransform="matrix(-1 0 0 1 -1161.2548 0)">
					<stop  offset="0" style="stop-color:#09005D"/>
					<stop  offset="1" style="stop-color:#1A0F91"/>
				</linearGradient>
				<path style="fill:url(#SVGID_00000072967602219370456730000015401010062119153851_);" d="M2437.009,1365.201
					c0,0,172.089,573.633,0,650.117c-172.09,76.484-315.498-108.353-315.498-108.353l19.122-54.176
					c0,0,156.155,89.231,207.145,44.615c50.99-44.615-35.055-305.937-35.055-305.937L2437.009,1365.201z"/>
				
					<linearGradient id="SVGID_00000119082136090097379630000015139694162664946589_" gradientUnits="userSpaceOnUse" x1="-3259.1494" y1="1895.6998" x2="-3180.7861" y2="1895.6998" gradientTransform="matrix(-1 0 0 1 -1161.2548 0)">
					<stop  offset="0" style="stop-color:#FEBBBA"/>
					<stop  offset="1" style="stop-color:#FF928E"/>
				</linearGradient>
				<path style="fill:url(#SVGID_00000119082136090097379630000015139694162664946589_);" d="M2019.531,1932.46
					c0,0,35.056,3.186,54.177-15.934c19.121-19.121,38.242-54.177,9.56-57.364c-28.681-3.187-57.363,12.747-57.363,12.747
					L2019.531,1932.46z"/>
				
					<linearGradient id="SVGID_00000021102095458491011910000011377282971659081868_" gradientUnits="userSpaceOnUse" x1="-3184.0559" y1="1856.6783" x2="-3342.8833" y2="1936.0922" gradientTransform="matrix(-1 0 0 1 -1161.2548 0)">
					<stop  offset="0" style="stop-color:#FEBBBA"/>
					<stop  offset="1" style="stop-color:#FF928E"/>
				</linearGradient>
				<path style="fill:url(#SVGID_00000021102095458491011910000011377282971659081868_);" d="M2006.785,1871.91
					c0,0,82.858-50.99,133.848-19.12c0,0,9.561,38.242-19.122,54.176c0,0-50.99,35.056-92.418,15.934
					C1987.664,1903.779,2006.785,1871.91,2006.785,1871.91z"/>
			</g>
			<g>
				
					<linearGradient id="SVGID_00000091000821674922558420000011000808985599560096_" gradientUnits="userSpaceOnUse" x1="-2832.427" y1="2330.8149" x2="-2762.3169" y2="2330.8149" gradientTransform="matrix(-1 0 0 1 -1161.2548 0)">
					<stop  offset="0" style="stop-color:#FEBBBA"/>
					<stop  offset="1" style="stop-color:#FF928E"/>
				</linearGradient>
				<path style="fill:url(#SVGID_00000091000821674922558420000011000808985599560096_);" d="M1601.062,2402.519l30.139-16.229
					c7.181-3.867,12.365-10.619,14.244-18.555l25.727-108.624l-50.679,1.455L1601.062,2402.519z"/>
				
					<linearGradient id="SVGID_00000028296297973161858480000000657879434151895192_" gradientUnits="userSpaceOnUse" x1="1120.3093" y1="1216.5339" x2="1743.579" y2="2038.5758">
					<stop  offset="0" style="stop-color:#E1473D"/>
					<stop  offset="1" style="stop-color:#E9605A"/>
				</linearGradient>
				<path style="fill:url(#SVGID_00000028296297973161858480000000657879434151895192_);" d="M1648.864,1529.324
					c0,0,95.605,325.058,22.308,729.787c0,0-15.314,22.031-50.679,1.455c0,0,2.876-489.042-28.992-575.087L1648.864,1529.324z"/>
				<g>
					
						<linearGradient id="SVGID_00000074415318341468575940000000135385285187506358_" gradientUnits="userSpaceOnUse" x1="4570.9609" y1="3201.4141" x2="4642.9302" y2="3201.4141" gradientTransform="matrix(1 0 0 1 -3118.5632 0)">
						<stop  offset="0" style="stop-color:#4F52FF"/>
						<stop  offset="1" style="stop-color:#4042E2"/>
					</linearGradient>
					<path style="fill-rule:evenodd;clip-rule:evenodd;fill:url(#SVGID_00000074415318341468575940000000135385285187506358_);" d="
						M1458.139,3160.575l-5.742,14.093l2.328,50.741c0.327,7.131,6.08,13.115,13.835,14.312c10.585,1.633,25.979,3.284,40.463,2.165
						c11.34-0.876,18.444-11.527,14.006-21.037l-17.082-36.599c-2.555-5.474-7.223-9.678-12.934-11.648L1458.139,3160.575z"/>
					
						<linearGradient id="SVGID_00000052086409570417087370000012655517253676086943_" gradientUnits="userSpaceOnUse" x1="4558.8291" y1="2941.7273" x2="4661.9214" y2="2941.7273" gradientTransform="matrix(1 0 0 1 -3118.5632 0)">
						<stop  offset="0" style="stop-color:#FEBBBA"/>
						<stop  offset="1" style="stop-color:#FF928E"/>
					</linearGradient>
					<path style="fill-rule:evenodd;clip-rule:evenodd;fill:url(#SVGID_00000052086409570417087370000012655517253676086943_);" d="
						M1440.266,2700.489c0,0,0.001,367.936,17.318,471.575c0.888,5.319,4.943,9.594,10.259,10.496
						c4.857,0.824,11.489,0.637,19.412-2.875c3.987-1.767,6.634-5.668,7.169-9.995l48.934-462.757L1440.266,2700.489z"/>
					
						<linearGradient id="SVGID_00000092420361840135970480000007657232561977997964_" gradientUnits="userSpaceOnUse" x1="-686.4216" y1="3201.4141" x2="-610.3365" y2="3201.4141" gradientTransform="matrix(-1 0 0 1 720.0537 0)">
						<stop  offset="0" style="stop-color:#4F52FF"/>
						<stop  offset="1" style="stop-color:#4042E2"/>
					</linearGradient>
					<path style="fill-rule:evenodd;clip-rule:evenodd;fill:url(#SVGID_00000092420361840135970480000007657232561977997964_);" d="
						M1396.618,3160.575l5.742,14.093l4.116,50.741c-0.327,7.131-6.08,13.115-13.835,14.312
						c-10.585,1.633-32.422,3.284-46.907,2.165c-11.339-0.876-18.444-11.527-14.006-21.037l17.081-36.599
						c2.555-5.474,7.223-9.678,12.935-11.648L1396.618,3160.575z"/>
					
						<linearGradient id="SVGID_00000005253817390079893900000010975151772998363796_" gradientUnits="userSpaceOnUse" x1="-694.4382" y1="2941.7275" x2="-591.3452" y2="2941.7275" gradientTransform="matrix(-1 0 0 1 720.0537 0)">
						<stop  offset="0" style="stop-color:#FEBBBA"/>
						<stop  offset="1" style="stop-color:#FF928E"/>
					</linearGradient>
					<path style="fill-rule:evenodd;clip-rule:evenodd;fill:url(#SVGID_00000005253817390079893900000010975151772998363796_);" d="
						M1414.492,2700.489c0,0-0.001,372.792-17.739,474.035c-0.583,3.324-2.917,6.114-6.132,7.138
						c-5.157,1.644-13.832,2.639-24.813-2.771c-2.854-1.405-4.851-4.167-5.242-7.324l-49.166-464.635L1414.492,2700.489z"/>
				</g>
				
					<linearGradient id="SVGID_00000114783789134351796900000004457508287379839929_" gradientUnits="userSpaceOnUse" x1="-2783.6277" y1="2367.8179" x2="-2408.999" y2="2367.8179" gradientTransform="matrix(-1 0 0 1 -1161.2548 0)">
					<stop  offset="0" style="stop-color:#09005D"/>
					<stop  offset="1" style="stop-color:#1A0F91"/>
				</linearGradient>
				<path style="fill:url(#SVGID_00000114783789134351796900000004457508287379839929_);" d="M1588.314,1972.295
					c50.99,117.914,46.496,450.423-25.495,783.964c0,0-178.464,15.935-264.508,0c0,0-117.913-688.359,6.374-783.964H1588.314z"/>
				
					<linearGradient id="SVGID_00000055709498117501000350000004906223770385122469_" gradientUnits="userSpaceOnUse" x1="1091.6033" y1="1238.299" x2="1714.8733" y2="2060.3411">
					<stop  offset="0" style="stop-color:#E1473D"/>
					<stop  offset="1" style="stop-color:#E9605A"/>
				</linearGradient>
				<path style="fill:url(#SVGID_00000055709498117501000350000004906223770385122469_);" d="M1218.64,1529.324
					c0,0,66.924-111.54,207.145-143.408l73.297-3.187c0,0,105.167,50.99,149.782,146.595l-57.363,245.387l-3.187,197.584
					c0,0-168.903,38.242-283.629,0l-25.495-242.2L1218.64,1529.324z"/>
				
					<linearGradient id="SVGID_00000129895613672173025920000003975457001402901429_" gradientUnits="userSpaceOnUse" x1="-2706.0867" y1="1602.559" x2="-2595.0576" y2="1282.1611" gradientTransform="matrix(-1 0 0 1 -1161.2548 0)">
					<stop  offset="0" style="stop-color:#FEBBBA"/>
					<stop  offset="1" style="stop-color:#FF928E"/>
				</linearGradient>
				<path style="fill:url(#SVGID_00000129895613672173025920000003975457001402901429_);" d="M1505.456,1293.497v120.769
					c0,9.769-7.114,18.083-16.775,19.537c-16.003,2.408-40.75,4.273-61.995-2.115c-9.786-2.943-15.82-12.74-13.862-22.77
					l22.521-115.421H1505.456z"/>
				
					<linearGradient id="SVGID_00000183251226704254396420000009126882774030532993_" gradientUnits="userSpaceOnUse" x1="-2747.238" y1="1337.1429" x2="-2523.1658" y2="1047.5177" gradientTransform="matrix(-1 0 0 1 -1161.2548 0)">
					<stop  offset="0" style="stop-color:#FEBBBA"/>
					<stop  offset="1" style="stop-color:#FF928E"/>
				</linearGradient>
				<path style="fill:url(#SVGID_00000183251226704254396420000009126882774030532993_);" d="M1550.072,1116.627
					c0,0,76.486,203.958-20.714,228.725c-114.394,29.149-152.968-121.965-152.968-121.965S1476.775,934.976,1550.072,1116.627z"/>
				<path style="fill:#FFFFFF;" d="M1345.721,1128.034c0,0,41.308-79.585,8.058-112.386c-33.251-32.802-95.224-18.341-104.02,47.036
					C1240.965,1128.059,1325.558,1199.167,1345.721,1128.034z"/>
				<path style="fill:#FFFFFF;" d="M1581.068,1099.734c4.608,16.757-10.444,32.321-27.381,28.426
					c-17.051-3.921-38.032-7.461-56.198-6.753c-122.694,4.781-74.891,84.451-74.891,97.199c0,26.071-25.623-13.57-27.088-4.78
					c-3.188,19.121,11.729,77.135,11.729,77.135s-78.654-16.585-104.148-54.827c-25.495-38.242,3.186-124.287,12.747-156.155
					c9.561-31.869,73.298-63.738,108.353-60.55C1455.532,1022.277,1555.648,1007.296,1581.068,1099.734z"/>
				
					<linearGradient id="SVGID_00000174591940845807366910000001999855056983984777_" gradientUnits="userSpaceOnUse" x1="-2681.3083" y1="1390.7209" x2="-2456.689" y2="1100.3887" gradientTransform="matrix(-1 0 0 1 -1161.2548 0)">
					<stop  offset="0" style="stop-color:#FEBBBA"/>
					<stop  offset="1" style="stop-color:#FF928E"/>
				</linearGradient>
				<path style="fill:url(#SVGID_00000174591940845807366910000001999855056983984777_);" d="M1411.444,1236.134
					c0,0-9.561-47.802-35.055-38.242c-25.495,9.561,19.121,63.737,35.055,73.297V1236.134z"/>
				
					<linearGradient id="SVGID_00000009557194938682147750000003145275552652392100_" gradientUnits="userSpaceOnUse" x1="908.7219" y1="1376.9587" x2="1531.9938" y2="2199.0032">
					<stop  offset="0" style="stop-color:#E1473D"/>
					<stop  offset="1" style="stop-color:#E9605A"/>
				</linearGradient>
				<path style="fill:url(#SVGID_00000009557194938682147750000003145275552652392100_);" d="M1218.64,1529.324
					c0,0-232.64,360.113,35.056,525.829l24.42-34.727c0,0-126.4-185.166-8.486-350.882L1218.64,1529.324z"/>
				
					<linearGradient id="SVGID_00000140705241698147817780000004299783548670531715_" gradientUnits="userSpaceOnUse" x1="-2111.8975" y1="1748.3057" x2="-2777.5217" y2="3448.2803" gradientTransform="matrix(-1 0 0 1 -1161.2548 0)">
					<stop  offset="0" style="stop-color:#4F52FF"/>
					<stop  offset="1" style="stop-color:#4042E2"/>
				</linearGradient>
				<path style="fill:url(#SVGID_00000140705241698147817780000004299783548670531715_);" d="M1307.872,3255
					c6.16,0,11.154-4.995,11.154-11.154V2077.461c0-6.159-4.993-11.155-11.154-11.155c-6.161,0-11.154,4.995-11.154,11.155v1166.385
					C1296.718,3250.005,1301.711,3255,1307.872,3255z"/>
				
					<linearGradient id="SVGID_00000157266548993044452710000003233324999143057334_" gradientUnits="userSpaceOnUse" x1="-2505.0112" y1="2080.7148" x2="-2414.9507" y2="2080.7148" gradientTransform="matrix(-1 0 0 1 -1161.2548 0)">
					<stop  offset="0" style="stop-color:#FEBBBA"/>
					<stop  offset="1" style="stop-color:#FF928E"/>
				</linearGradient>
				<path style="fill:url(#SVGID_00000157266548993044452710000003233324999143057334_);" d="M1279.191,2020.097
					c0,0,60.55,22.308,63.737,70.111c3.186,47.802-3.187,60.55-12.747,44.615c-9.561-15.934-19.122-31.867-38.243-44.615
					c-19.121-12.747-38.242-35.056-38.242-35.056S1256.883,2020.097,1279.191,2020.097z"/>
			</g>
		</g>
		<g>
			
				<ellipse transform="matrix(0.7071 -0.7071 0.7071 0.7071 -246.6705 2610.5447)" style="fill:#91B3FA;" cx="3027.871" cy="1603.03" rx="207.001" ry="207.001"/>
			<path style="fill:#FFFFFF;" d="M2854.723,1526.334c-0.602,0.019-1.217-0.098-1.801-0.372c-1.991-0.929-2.851-3.296-1.921-5.283
				c31.341-67.177,96.803-110.33,170.841-112.62c11.815-0.365,23.681,0.332,35.266,2.08c2.172,0.325,3.668,2.35,3.341,4.524
				c-0.327,2.17-2.349,3.69-4.524,3.337c-11.115-1.673-22.5-2.343-33.837-1.992c-71.02,2.196-133.815,43.592-163.882,108.03
				C2857.551,1525.446,2856.177,1526.289,2854.723,1526.334z"/>
			<circle style="opacity:0.78;fill:#FFFFFF;" cx="3032.519" cy="1607.398" r="175.201"/>
			<g>
				<path style="fill:#91B3FA;" d="M3019.36,1738.114l-0.589-19.052c-19.886-0.181-39.675-4.261-53.816-9.937
					c-5.05-2.027-7.762-7.539-6.493-12.831l4.291-17.896c1.574-6.565,8.55-10.151,14.854-7.735
					c14.02,5.374,31.251,9.436,49.679,8.866c19.13-0.592,33.195-7.519,32.784-20.812c-0.371-11.996-11.615-18.788-38.423-25.098
					c-38.255-9.202-66.003-24.897-67.035-58.292c-0.933-30.155,20.404-53.857,58.472-61.199l-0.589-19.054
					c-0.189-6.131,4.627-11.255,10.758-11.444l11.194-0.346c6.131-0.19,11.255,4.627,11.444,10.758l0.529,17.107
					c18.4,0.167,31.875,2.896,42.607,6.298c5.499,1.743,8.652,7.51,7.315,13.122l-3.944,16.55
					c-1.521,6.382-8.177,10.057-14.383,7.928c-9.889-3.394-23.828-6.815-41.791-6.26c-22.697,0.702-28.889,10.304-28.628,18.735
					c0.321,10.375,14.159,17.087,43.944,25.254c42.542,11.341,60.591,28.308,61.563,59.759
					c0.892,28.857-19.704,55.457-61.005,63.226l0.659,21.321c0.189,6.131-4.627,11.255-10.758,11.445l-11.195,0.346
					C3024.673,1749.062,3019.549,1744.246,3019.36,1738.114z"/>
			</g>
		</g>
		<g>
			
				<ellipse transform="matrix(0.7071 -0.7071 0.7071 0.7071 77.7932 2279.0486)" style="fill:#91B3FA;" cx="2789.952" cy="1045.62" rx="207.351" ry="207.351"/>
			<path style="fill:#FFFFFF;" d="M2616.512,968.794c-0.603,0.019-1.219-0.099-1.804-0.372c-1.994-0.931-2.856-3.301-1.925-5.292
				c31.394-67.291,96.967-110.517,171.13-112.81c11.835-0.366,23.721,0.333,35.326,2.083c2.176,0.326,3.675,2.354,3.347,4.532
				c-0.328,2.174-2.353,3.696-4.532,3.343c-11.133-1.675-22.538-2.346-33.895-1.995c-71.14,2.2-134.041,43.666-164.158,108.212
				C2619.344,967.905,2617.968,968.749,2616.512,968.794z"/>
			
				<ellipse transform="matrix(0.7071 -0.7071 0.7071 0.7071 76.0626 2283.6223)" style="opacity:0.78;fill:#FFFFFF;" cx="2794.607" cy="1049.995" rx="175.497" ry="175.497"/>
			<path style="fill:#91B3FA;" d="M2894.234,999.936h-57.502v-49.533c0-11.628-9.426-21.054-21.054-21.054h-42.14
				c-11.628,0-21.054,9.427-21.054,21.054v49.533h-57.502c-11.628,0-21.054,9.426-21.054,21.054v48.971
				c0,11.628,9.426,21.054,21.054,21.054h57.502v49.533c0,11.628,9.426,21.054,21.054,21.054h42.14
				c11.628,0,21.054-9.427,21.054-21.054v-49.533h57.502c11.628,0,21.054-9.426,21.054-21.054v-48.971
				C2915.288,1009.362,2905.862,999.936,2894.234,999.936z"/>
		</g>
		<g>
			
				<ellipse transform="matrix(0.7071 -0.7071 0.7071 0.7071 182.9567 1855.9785)" style="fill:#91B3FA;" cx="2331.843" cy="707.141" rx="206.389" ry="206.389"/>
			<path style="fill:#FFFFFF;" d="M2159.207,630.672c-0.6,0.018-1.214-0.098-1.795-0.37c-1.985-0.926-2.843-3.286-1.916-5.267
				c31.249-66.978,96.517-110.004,170.336-112.287c11.78-0.364,23.611,0.331,35.162,2.074c2.166,0.324,3.657,2.343,3.331,4.511
				c-0.326,2.164-2.342,3.679-4.51,3.328c-11.082-1.668-22.434-2.336-33.738-1.986c-70.81,2.19-133.419,43.464-163.397,107.711
				C2162.026,629.787,2160.656,630.627,2159.207,630.672z"/>
			<circle style="opacity:0.78;fill:#FFFFFF;" cx="2336.477" cy="711.496" r="174.683"/>
			<path style="fill:#91B3FA;" d="M2458.373,659.285l-121.896-93.634l-121.896,93.634c-5.916,4.544-2.703,14.004,4.757,14.004
				h17.235c-0.203,1-0.311,2.033-0.311,3.093v139.806c0,8.541,6.925,15.465,15.465,15.465h169.499
				c8.541,0,15.465-6.924,15.465-15.465V676.382c0-1.06-0.107-2.094-0.311-3.093h17.236
				C2461.076,673.289,2464.288,663.829,2458.373,659.285z M2376.094,777.27h-79.235v-79.236h79.235V777.27z"/>
		</g>
	</g>
</g>
</svg>
